<svg viewBox="0 0 459.73863 448.60946" class="svg" version="1.1">
    <g transform="translate(-298.70213,-962.34319)">
        <path
            class="path"
            id="githubsvg"
            d="m 528.55071,967.34319 c -124.17197,0 -224.8486,100.67661 -224.8486,224.87621 0,99.3514 64.42589,183.6282 153.78274,213.3771 11.25075,2.0568 15.35067,-4.8869 15.35067,-10.8504 0,-5.3285 -0.19372,-19.4782 -0.30344,-38.2386 -62.54839,13.5837 -75.7456,-30.1492 -75.7456,-30.1492 -10.22918,-25.9664 -24.97244,-32.8825 -24.97244,-32.8825 -20.41695,-13.9564 1.54608,-13.6802 1.54608,-13.6802 22.57046,1.6012 34.4424,23.1778 34.4424,23.1778 20.05799,34.3595 52.63677,24.434 65.44738,18.6914 2.04312,-14.5362 7.84106,-24.4479 14.27392,-30.0663 -49.93111,-5.6737 -102.42978,-24.9724 -102.42978,-111.1405 0,-24.5446 8.76583,-44.6163 23.15026,-60.3398 -2.31916,-5.6874 -10.03598,-28.5478 2.19492,-59.5114 0,0 18.88464,-6.0464 61.8444,23.0536 17.9321,-4.9835 37.17569,-7.4821 56.29495,-7.5649 19.09168,0.083 38.33528,2.5814 56.29505,7.5649 42.93209,-29.1 61.77532,-23.0536 61.77532,-23.0536 12.27231,30.9636 4.55549,53.824 2.23633,59.5114 14.41197,15.7235 23.1227,35.7952 23.1227,60.3398 0,86.3889 -52.58158,105.3977 -102.67836,110.9609 8.07565,6.9438 15.26788,20.6655 15.26788,41.6484 0,30.0526 -0.27642,54.3071 -0.27642,61.6788 0,6.0188 4.04478,13.0178 15.46108,10.8228 89.28787,-29.8041 153.6586,-114.0257 153.6586,-213.3495 0,-124.1996 -100.69053,-224.87621 -224.89011,-224.87621"/>
    </g>
</svg>
