<svg xmlns="http://www.w3.org/2000/svg" viewBox="0 0 61.004003 12" width="61.004" height="12"><path d="M.004 0L0 12h1l.004-12zM2.004 0v12h1V0h-1zM4.004 0v12h1V0h-1zM9.004 0L18 12 18.004.002h-1.996l.996 1.328v7.678l-4-5.336V.002h-4zM20.004 0v6.588l3 3V0h-3zM25.004 0v12h4V6.666l4 5.334h4v-1.328L29.004 0h-4zM33.004 0v3.67l4 5.336V1.328L36.008 0h-3.004zM45.004 0v8.5H43.33l-2-2h-2.326v.502L44.002 12h5.002V0h-4zM51.004 0v2.998l2.748 3.66h-2.748v2.998h5l1.76 2.342h3.24v-.644L52.479 0h-1.475zM53.73 0l7.274 9.685V8.018L54.983 0H53.73zM56.234 0l4.77 6.351V4.684L57.486 0h-1.252zM58.736 0l2.268 3.02V1.35L59.988 0h-1.252zM9.004 6.664v5.334h4l-4-5.334zM20.004 7.998v2.588l1.412 1.412h1.588v-1l-3-3zM39.004 8.414v1.412l2.172 2.172h1.412l-3.584-3.584z"/></svg>