<?xml version="1.0" encoding="UTF-8" standalone="no"?>
<svg
   xmlns:dc="http://purl.org/dc/elements/1.1/"
   xmlns:cc="http://creativecommons.org/ns#"
   xmlns:rdf="http://www.w3.org/1999/02/22-rdf-syntax-ns#"
   xmlns:svg="http://www.w3.org/2000/svg"
   xmlns="http://www.w3.org/2000/svg"
   version="1.1"
   id="ninja"
   viewBox="0 0 61.003999 12.0859"
   height="3.4109097mm"
   width="17.216684mm">
  <defs
     id="defs4" />
  <g
     transform="translate(-206.05548,-494.99943)"
     id="layer1">
    <path
       id="path5610"
       d="m 206.05948,494.99943 -0.004,12.0859 1,0 0.004,-12.0859 -1,0 z m 2,0 0,12 1,0 0,-12 -1,0 z m 2,0 0,12 1,0 0,-12 -1,0 z m 5,0 8.9961,12 0.004,-11.9981 -1.99609,0 0.99609,1.3281 0,7.6778 -4,-5.336 0,-3.6699 -4,0 z m 11,0 0,6.5878 3,3 0,-9.5878 -3,0 z m 5,0 0,12 4,0 0,-5.334 4,5.334 4,0 0,-1.3282 -8,-10.6718 -4,0 z m 8,0 0,3.6699 4,5.3359 0,-7.6777 -0.99609,-1.3281 -3.00391,0 z m 12,0 0,8.5 -1.67383,0 -2,-2 -2.32617,0 0,0.5019 4.99805,4.9981 5.00195,0 0,-12 -4,0 z m 6,0 0,2.998 2.74805,3.6602 -2.74805,0 0,2.998 5,0 1.75977,2.3418 3.24023,0 0,-0.6445 -8.52539,-11.3535 -1.47461,0 z m 2.72657,0 7.27343,9.6855 0,-1.668 -6.02148,-8.0175 -1.25195,0 z m 2.5039,0 4.76953,6.3515 0,-1.6679 -3.51757,-4.6836 -1.25196,0 z m 2.50196,0 2.26757,3.0195 0,-1.668 -1.01562,-1.3515 -1.25195,0 z m -49.73243,6.664 0,5.334 4,0 -4,-5.334 z m 11,1.334 0,2.5879 1.41211,1.4121 1.58789,0 0,-1 -3,-3 z m 19,0.416 0,1.4121 2.17188,2.1719 1.41211,0 -3.58399,-3.584 z"
       style="color:#000000;font-style:normal;font-variant:normal;font-weight:normal;font-stretch:normal;font-size:medium;line-height:normal;font-family:sans-serif;text-indent:0;text-align:start;text-decoration:none;text-decoration-line:none;text-decoration-style:solid;text-decoration-color:#000000;letter-spacing:normal;word-spacing:normal;text-transform:none;direction:ltr;block-progression:tb;writing-mode:lr-tb;baseline-shift:baseline;text-anchor:start;white-space:normal;clip-rule:nonzero;display:inline;overflow:visible;visibility:visible;opacity:1;isolation:auto;mix-blend-mode:normal;color-interpolation:sRGB;color-interpolation-filters:linearRGB;solid-color:#000000;solid-opacity:1;fill:#000000;fill-opacity:1;fill-rule:nonzero;stroke:none;stroke-width:4;stroke-linecap:butt;stroke-linejoin:miter;stroke-miterlimit:4;stroke-dasharray:none;stroke-dashoffset:0;stroke-opacity:1;color-rendering:auto;image-rendering:auto;shape-rendering:auto;text-rendering:auto;enable-background:accumulate" />
  </g>
</svg>
