<svg viewBox="0 0 451.32133 451.3213" class="svg" version="1.1">
    <g transform="translate(-128.62505,-172.41584)">
        <path
            class="path"
            id="pixivsvg"
            d="m 234.19791,177.41584 c -55.71715,0 -100.57286,44.8557 -100.57286,100.5729 l 0,17.2461 c 41.56188,-34.924 122.63824,-89.065 226.31717,-89.065 58.68395,0 109.17762,18.1683 145.23415,49.6579 36.09203,31.3733 57.05538,76.2833 56.94855,125.2227 0.14541,49.8443 -23.7096,93.4538 -60.71954,122.6584 -37.01326,29.3726 -86.7708,45.6292 -141.46316,45.6292 -62.24235,0 -119.98725,-22.6513 -119.98725,-22.6513 l 0,73.0696 c 10.03085,2.9355 26.09832,9.0254 18.74824,18.9808 l 215.67032,0 c 55.71717,0 100.57284,-44.8556 100.57284,-100.5728 l 0,-240.1756 c 0,-55.7172 -44.85567,-100.5729 -100.57284,-100.5729 l -240.17562,0 z m 120.60319,54.8557 c -38.25747,-0.078 -85.63505,12.6994 -114.84613,33.4426 l 0,165.8238 0,66.5646 c 26.62224,13.1026 66.94751,22.3817 114.84613,22.3495 42.93428,0.033 80.15422,-15.9431 105.74537,-41.1982 25.59447,-25.4652 39.97456,-58.6695 40.12355,-98.9891 -0.11961,-41.3731 -13.56885,-76.9751 -38.20659,-103.7718 -24.67656,-26.6416 -61.1825,-44.1838 -107.66233,-44.2214 z m -164.64231,57.7341 c -28.33843,21.7548 -42.85333,40.6096 -50.26754,54.6043 7.0872,22.606 -2.62274,25.5839 -6.2662,25.9508 l 0,147.6036 c 0,35.8498 18.58782,67.1784 46.67252,84.9797 3.18985,-1.3517 6.64997,-2.482 9.86122,-3.3877 l 0,-309.7507 z"/>
    </g>
</svg>
