<svg viewBox="0 0 579.41094 458.17632" class="svg" version="1.1">
    <g transform="translate(-90.294539,-326.13117)">
        <path
            class="path"
            id="twittersvg"
            d="m 660.33774,384.22345 c -20.30417,9.00698 -42.1288,15.09144 -65.02983,17.82893 23.37568,-14.01278 41.3314,-36.20137 49.7836,-62.64277 -21.87966,12.97791 -46.11065,22.39872 -71.90332,27.47596 -20.65202,-22.00644 -50.07869,-35.7544 -82.64605,-35.7544 -62.52952,0 -113.22889,50.69428 -113.22889,113.22377 0,8.87441 1.00138,17.51712 2.93314,25.80361 -94.1032,-4.72135 -177.5328,-49.80002 -233.37899,-118.3036 -9.7465,16.72229 -15.33148,36.17112 -15.33148,56.92226 0,39.28383 19.98942,73.93995 50.37114,94.24379 -18.56002,-0.58759 -36.01918,-5.68158 -51.28476,-14.16146 l 0,1.42393 c 0,54.85828 39.02994,100.61818 90.82796,111.02693 -18.04813,5.59922 -30.85658,5.86377 -51.13287,1.94007 14.40992,44.98215 56.22394,77.71748 105.77301,78.62818 -57.86899,35.5865 -108.00696,53.7933 -167.6319,46.8887 92.47819,67.9203 251.26633,64.2506 346.43346,5.8684 105.91142,-64.9735 160.17155,-210.08672 148.96212,-291.80417 22.11972,-15.9606 41.31467,-35.90049 56.49459,-58.60813 z"/>
    </g>
</svg>
