<svg xmlns="http://www.w3.org/2000/svg" width="1500" height="500" viewBox="0 0 396.875 132.29167"><path style="isolation:auto;mix-blend-mode:normal;marker:none" d="M0 78.256h396.875M0 83.852h396.875m-162.106 48.44V0m-9.712 132.292V0m-19.373 132.292V0m98.256 0l93.529 124.718M297.87 0l99.004 132.018M291.82 0l99.209 132.292M285.759 0l99.209 132.292M279.69 0L378.9 132.292M273.633 0l99.208 132.292M267.576 0l99.208 132.292M249.378 0l99.209 132.292M169.397 0l99.208 132.292M194.603 0l99.208 132.292M175.46 0l99.208 132.292M164.491 0L263.7 132.292M158.474 0l99.208 132.292M134.264 0l93.502 132.292M119.726 0l99.209 132.292M113.675 0l99.209 132.292M87.033 0l99.208 132.292M181.521 0l99.208 132.292M80.984 0l99.208 132.292M56.801 0l99.209 132.292M0 69.326h396.875M0 68.57h396.875m-60.393 63.722V0M0 95.218h396.875M0 37.107h396.875m-288.04 95.185V0m38.73 132.292V0M128.19 132.292V0m38.763 132.292V0m19.373 132.292V0m77.502 132.292V0m24.22 132.292V0m-4.847 132.292V0m-53.298 132.292V0m-77.476 132.292V0M89.46 132.292V0m-4.848 132.292V0m-4.839 0v132.292M74.927 0v132.292M70.087 0v132.292M65.24 0v132.292M60.392 0v132.292" color="#000" overflow="visible" fill="none" stroke="#000" stroke-width=".265" stroke-miterlimit="100"/></svg>