<svg xmlns="http://www.w3.org/2000/svg" width="1500" height="500" viewBox="0 0 396.875 132.292"><path style="color:#000;clip-rule:nonzero;display:inline;overflow:visible;visibility:visible;opacity:1;isolation:auto;mix-blend-mode:normal;color-interpolation:sRGB;color-interpolation-filters:linearRGB;solid-color:#000;solid-opacity:1;vector-effect:none;fill:none;fill-opacity:1;fill-rule:nonzero;stroke:#000;stroke-width:.26458332;stroke-linecap:butt;stroke-linejoin:miter;stroke-miterlimit:100;stroke-dasharray:none;stroke-dashoffset:0;stroke-opacity:1;marker:none;color-rendering:auto;image-rendering:auto;shape-rendering:auto;text-rendering:auto;enable-background:accumulate" d="m5.61-18.185 99.209 132.292M-125.253-18.185v132.292m4.848-132.292v132.292m4.847-132.292v132.292m4.84-132.292v132.292m4.847-132.292v132.292m4.839 0V-18.185m4.847 132.292V-18.185m62.968 132.292V-18.185m77.476 132.292V-18.185m53.298 132.292V-18.185m4.847 132.292V-18.185m-24.22 132.292V-18.185M.681 114.107V-18.185m-19.374 132.292V-18.185m-38.763 132.292V-18.185m19.374 132.292V-18.185m-38.73 132.292V-18.185m-108.834 37.107H211.23m-396.875 58.111H211.23m-60.393 37.074V-18.185m-336.482 68.57H211.23m-396.875.756H211.23m-340.074-69.326 99.208 132.292m-75.026-132.292 99.209 132.292m1.328-132.292 99.209 132.292M-98.613-18.185.596 114.107M-71.97-18.185 27.24 114.107M-65.92-18.185 33.29 114.107M-51.382-18.185l99.308 132.292M-27.172-18.185l99.209 132.292M-21.154-18.185l99.208 132.292m-88.24-132.292 99.208 132.292M8.957-18.185l99.209 132.292M-16.25-18.185l99.208 132.292M63.733-18.185l99.209 132.292M81.93-18.185l99.208 132.292M87.987-18.185l99.209 132.292M94.046-18.185l99.208 132.292m-93.14-132.292 99.208 132.292M106.175-18.185l99.208 132.292M112.226-18.185l99.004 132.018M118.295-18.185l93.528 124.718m-191.785 7.574V-18.185m19.374 132.292V-18.185m9.711 132.292V-18.185m-234.768 83.852H211.23m-396.875-5.596H211.23" transform="translate(185.645 18.185)"/></svg>