<svg xmlns="http://www.w3.org/2000/svg" width="200" height="41.392" viewBox="0 0 52.917 10.952"><path style="line-height:normal;text-indent:0;text-align:start;text-decoration:none;text-decoration-line:none;text-decoration-style:solid;text-decoration-color:#000;text-transform:none;opacity:1;isolation:auto;mix-blend-mode:normal;fill:#000;stroke-width:.91236877" d="M46.22 149.39v7.756h-1.982l-1.37-1.826h-2.123v.46l3.424 4.558h5.7v-10.947zm5.475 0v2.735l2.506 3.34h-2.506v2.735h4.56l1.607 2.137h2.956v-.63l-7.748-10.316zm2.517 0 6.606 8.798v-1.52l-5.463-7.277zm2.285 0 4.32 5.753v-1.52l-3.179-4.232zm2.285 0 2.036 2.713v-1.524l-.895-1.188zm-50.881.003v10.949h.912v-10.95zm1.825 0v10.949h.911v-10.95zm1.824 0v10.949h.912v-10.95zm1.825 0v10.949h3.649v-4.868l3.65 4.868h3.648v-1.212l-7.298-9.737zm11.86 0v.913l2.737 3.644v-3.337l-.917-1.22zm6.387 0-.004.002h.006zm.002.002 8.206 10.947v-10.947h-1.822l.91 1.212v7.005l-3.65-4.869v-3.348zm-10.954 0v3.348l3.65 4.87v-7.006l-.909-1.212zm4.566 2.432v8.512h2.736v-4.868zm6.387 3.646v4.866h3.649zm9.123 1.828v1.52l1.14 1.518h1.142z" transform="translate(-7.901 -149.39)"/></svg>