<svg xmlns="http://www.w3.org/2000/svg" width="316.608" height="316.607" viewBox="0 0 83.769 83.769"><path style="opacity:1;fill:#000;stroke:none;stroke-width:.41884527" d="M49.586 90.318v23.455H73.04V90.318zm30.156 0v3.35h3.351v3.351h-6.702v3.351h3.351v3.35h3.351v3.351h-3.35v3.351h-3.351v6.702H62.989v6.701h3.35v-3.35h6.702v3.35h3.35v3.35h-3.35v-3.35H66.34v3.35h-3.351v-3.35h-3.35v-6.701H49.585v6.701h6.701v3.351h3.351v3.35h-3.351v3.351h6.702v-3.35h3.35v3.35h-3.35v3.35h6.701v-3.35h3.351v3.35h-3.35v3.351h3.35v3.351h-3.35v-3.35h-6.702v-3.351H52.936v3.35h6.702v3.351h-6.702v-3.35h-3.35v3.35h3.35v3.351h10.052v-3.35h6.702v3.35H76.391v-10.052h3.352v-10.053h3.35v-3.35h-3.35v-6.702h3.35v6.702h6.702v-6.702h3.35v3.351h3.351v-6.701h-3.35v-3.351h-3.351v6.701h-3.351v-6.701h-3.35v-3.351h3.35v-3.35h3.35v-3.351h-3.35v-3.351h3.35v3.35h3.351v-3.35h3.351v-3.35h3.35v6.701h-3.35v3.35h3.35v3.351h-6.7v3.351h3.35v3.351h3.35v-3.35h3.352V97.018h3.35v-3.35h-3.35v-3.351H89.795v3.35h-6.702v-3.35zm-26.806 46.91v-6.701h-3.35v6.701zm56.963-46.91v23.455h23.456V90.318zm-56.963 3.35H69.69v16.754H52.936zm60.314 0h16.754v16.754H113.25zM56.287 97.02v10.052H66.34V97.02zm60.314 0v10.052h10.052V97.02zm-36.858 13.403h3.35v3.35h-3.35zm23.455 0v6.702h-3.351v3.35h6.702v3.351h6.701v-6.701h-6.701v-6.702zm20.104 6.702v3.35h3.351v-3.35zm6.702 3.35v3.351h-6.702v3.351h3.351v6.702h3.35v3.35h-6.7v3.351h3.35v3.35h3.35v-3.35h3.352v-10.052h-3.351v-3.35h3.35v-6.702zm-6.702 16.754v-6.701h-3.35v6.701zm-26.806-13.403v3.351h-3.35v3.35h-3.351v3.352h-3.351v6.701h3.351v3.35h-6.702v3.351h3.351v3.351h3.351v-3.35h3.35v6.701h-3.35v3.351h-6.702v3.35h6.702v3.351h3.35v6.702h-3.35v-3.351h-3.351v6.702h10.052v-10.053h-3.35v-3.35h6.701v-3.351h-3.35v-3.35h6.7v6.7h10.053v3.351h3.35v6.702h6.702v-3.351h-3.35v-3.35h6.7v-3.351h-3.35V143.93h-3.35v-3.351H116.6v3.35H99.847v6.702h-3.35v-6.701h3.35v-3.351h-6.701v-3.35h6.701v-3.351h-3.35v-6.702h3.35v-3.35zm20.105 46.911h-3.35v3.35h3.35zm-3.35 0v-3.35h-3.352v3.35zm-30.158-13.403v-3.35h-3.35v-3.352h3.35v-3.35h-6.701v13.403h3.35v-3.351zm0-13.403v-6.702h-3.35v6.702zm3.351-16.754v3.35h3.35v-3.35zm13.403 0v3.35h3.35v-3.35zm16.754 0v3.35h3.35v-3.35zm-46.91 0h3.35v3.35h-3.35zm33.507 3.35v10.053H109.899v-3.351h3.351V130.527h-3.35v3.35h-3.351v-3.35zm10.052 6.702v3.35h3.35v-3.35zm-6.702 10.052h10.053v10.053h-10.053zm20.105 0v6.702h6.702v-6.702zm-77.067 3.351v23.455H73.04v-23.455zm60.313 0v3.351h3.351v-3.351zm-56.963 3.35H69.69v16.754H52.936zm3.351 3.351v10.052H66.34v-10.052zm20.105 6.702v10.053h3.35v-10.053zm23.455 0v6.701h3.35v3.352h3.352v-6.702h-3.351v-3.35zm30.157 0v3.35h3.35v-3.35zm0 3.35h-3.35v6.703h6.7v-3.352h-3.35z" transform="translate(-49.586 -90.318)"/></svg>